<?xml version="1.0" encoding="UTF-8"?>
<!DOCTYPE svg PUBLIC "-//W3C//DTD SVG 1.1//EN" "http://www.w3.org/Graphics/SVG/1.1/DTD/svg11.dtd">
<svg xmlns="http://www.w3.org/2000/svg" version="1.1" width="500px" height="500px" style="shape-rendering:geometricPrecision; text-rendering:geometricPrecision; image-rendering:optimizeQuality; fill-rule:evenodd; clip-rule:evenodd" xmlns:xlink="http://www.w3.org/1999/xlink">
<g><path style="opacity:1" fill="#fefefe" d="M -0.5,-0.5 C 166.167,-0.5 332.833,-0.5 499.5,-0.5C 499.5,166.167 499.5,332.833 499.5,499.5C 332.833,499.5 166.167,499.5 -0.5,499.5C -0.5,332.833 -0.5,166.167 -0.5,-0.5 Z"/></g>
<g><path style="opacity:1" fill="#401bff" d="M 267.5,170.5 C 269.833,170.5 272.167,170.5 274.5,170.5C 274.5,177.833 274.5,185.167 274.5,192.5C 272.167,192.5 269.833,192.5 267.5,192.5C 267.5,185.167 267.5,177.833 267.5,170.5 Z"/></g>
<g><path style="opacity:1" fill="#3e19ff" d="M 247.5,171.5 C 249.833,171.5 252.167,171.5 254.5,171.5C 254.5,178.833 254.5,186.167 254.5,193.5C 252.5,193.5 250.5,193.5 248.5,193.5C 247.813,186.187 247.479,178.854 247.5,171.5 Z"/></g>
<g><path style="opacity:1" fill="#421dff" d="M 297.5,174.5 C 299.854,174.838 302.187,175.338 304.5,176C 303.565,178.381 303.232,180.881 303.5,183.5C 307.241,182.599 309.241,183.932 309.5,187.5C 307.167,187.5 304.833,187.5 302.5,187.5C 302.007,189.806 301.674,192.139 301.5,194.5C 299.167,194.5 296.833,194.5 294.5,194.5C 295.5,187.833 296.5,181.167 297.5,174.5 Z"/></g>
<g><path style="opacity:1" fill="#4522ff" d="M 305.5,175.5 C 308.516,176.059 311.516,176.725 314.5,177.5C 315.452,179.045 315.785,180.712 315.5,182.5C 313.167,182.5 310.833,182.5 308.5,182.5C 308.5,181.5 308.5,180.5 308.5,179.5C 307.5,179.5 306.5,179.5 305.5,179.5C 305.5,178.167 305.5,176.833 305.5,175.5 Z"/></g>
<g><path style="opacity:1" fill="#4825ff" d="M 256.5,176.5 C 266.088,178.474 268.088,183.641 262.5,192C 260.19,192.497 257.857,192.663 255.5,192.5C 255.5,191.5 255.5,190.5 255.5,189.5C 256.5,189.5 257.5,189.5 258.5,189.5C 258.5,186.833 258.5,184.167 258.5,181.5C 257.5,181.5 256.5,181.5 255.5,181.5C 255.629,179.784 255.962,178.117 256.5,176.5 Z"/></g>
<g><path style="opacity:1" fill="#340fff" d="M 277.5,176.5 C 280.325,176.081 282.491,177.081 284,179.5C 284.499,183.821 284.666,188.154 284.5,192.5C 282.5,192.5 280.5,192.5 278.5,192.5C 278.5,188.5 278.5,184.5 278.5,180.5C 277.325,180.719 276.325,180.386 275.5,179.5C 276.193,178.482 276.859,177.482 277.5,176.5 Z"/></g>
<g><path style="opacity:1" fill="#3f1aff" d="M 319.5,176.5 C 321.96,176.699 324.293,177.365 326.5,178.5C 323.006,185.386 322.339,192.386 324.5,199.5C 319.716,199.892 316.716,197.725 315.5,193C 316.9,187.499 318.233,181.999 319.5,176.5 Z"/></g>
<g><path style="opacity:1" fill="#3915ff" d="M 236.5,178.5 C 239.272,178.22 241.772,178.887 244,180.5C 245.195,184.751 245.695,189.085 245.5,193.5C 243.738,193.357 242.071,193.691 240.5,194.5C 239.239,190.939 238.406,187.272 238,183.5C 235.491,182.347 234.991,180.68 236.5,178.5 Z"/></g>
<g><path style="opacity:1" fill="#3c18ff" d="M 224.5,184.5 C 225.536,179.982 228.203,178.648 232.5,180.5C 234.881,185.201 235.881,190.201 235.5,195.5C 233.5,195.5 231.5,195.5 229.5,195.5C 229.002,192.513 228.502,189.513 228,186.5C 227.29,185.027 226.124,184.36 224.5,184.5 Z"/></g>
<g><path style="opacity:1" fill="#421dff" d="M 224.5,184.5 C 224.833,188.5 225.167,192.5 225.5,196.5C 223.194,196.993 220.861,197.326 218.5,197.5C 218.267,192.106 217.601,186.773 216.5,181.5C 218.833,181.5 221.167,181.5 223.5,181.5C 223.263,182.791 223.596,183.791 224.5,184.5 Z"/></g>
<g><path style="opacity:1" fill="#3e1aff" d="M 205.5,184.5 C 208.862,184.07 211.695,185.07 214,187.5C 214.989,190.456 215.822,193.456 216.5,196.5C 215.037,199.408 212.87,200.075 210,198.5C 205.17,204.309 201.337,203.809 198.5,197C 200.57,192.769 203.57,191.436 207.5,193C 206.293,194.3 205.626,195.8 205.5,197.5C 206.833,197.5 208.167,197.5 209.5,197.5C 209.624,189.346 206.124,187.346 199,191.5C 198.333,190.167 198.333,188.833 199,187.5C 201.294,186.578 203.461,185.578 205.5,184.5 Z"/></g>
<g><path style="opacity:1" fill="#401cff" d="M 331.5,186.5 C 332.833,186.5 334.167,186.5 335.5,186.5C 334.943,188.949 334.943,191.282 335.5,193.5C 336.863,194.879 337.863,194.713 338.5,193C 337.115,191.403 336.449,189.57 336.5,187.5C 342.773,187.386 345.273,190.386 344,196.5C 343.481,197.516 342.647,198.182 341.5,198.5C 338.38,198.193 335.88,196.859 334,194.5C 332.813,196.044 332.48,197.711 333,199.5C 333.333,199.167 333.667,198.833 334,198.5C 336.301,199.867 338.801,200.534 341.5,200.5C 341.55,202.59 340.55,203.923 338.5,204.5C 335.77,203.99 333.603,202.656 332,200.5C 330.817,201.731 329.651,201.731 328.5,200.5C 325.782,194.998 326.782,190.332 331.5,186.5 Z"/></g>
<g><path style="opacity:1" fill="#3e1aff" d="M 306.5,190.5 C 308.924,190.192 311.257,190.526 313.5,191.5C 312.691,193.071 312.357,194.738 312.5,196.5C 309.14,196.384 305.807,196.051 302.5,195.5C 302.5,194.167 302.5,192.833 302.5,191.5C 304.099,191.768 305.432,191.434 306.5,190.5 Z"/></g>
<g><path style="opacity:1" fill="#3f1cff" d="M 189.5,189.5 C 193.046,190.043 195.379,192.043 196.5,195.5C 193.479,198.009 190.479,198.009 187.5,195.5C 186.833,195.833 186.167,196.167 185.5,196.5C 187.029,199.754 188.362,203.087 189.5,206.5C 187.821,207.782 185.987,208.782 184,209.5C 181.98,205.114 180.147,200.614 178.5,196C 180.207,192.531 182.374,192.031 185,194.5C 186.059,192.341 187.559,190.674 189.5,189.5 Z"/></g>
<g><path style="opacity:1" fill="#3b16ff" d="M 351.5,192.5 C 353.103,192.312 354.437,192.812 355.5,194C 353.205,198.759 351.038,203.592 349,208.5C 344.945,204.69 344.445,200.357 347.5,195.5C 348.901,194.479 350.235,193.479 351.5,192.5 Z"/></g>
<g><path style="opacity:1" fill="#4925ff" d="M 356.5,194.5 C 361.78,195.407 363.78,198.407 362.5,203.5C 360.289,202.877 358.289,201.877 356.5,200.5C 355.889,198.714 355.889,196.714 356.5,194.5 Z"/></g>
<g><path style="opacity:1" fill="#3b17ff" d="M 161.5,205.5 C 161.34,203.801 161.506,202.134 162,200.5C 165.897,203.51 167.897,207.51 168,212.5C 168.513,210.479 169.68,208.979 171.5,208C 168.568,204.558 165.235,201.725 161.5,199.5C 162.736,197.048 164.736,195.881 167.5,196C 172.649,199.982 177.315,204.482 181.5,209.5C 179.717,212.207 177.383,212.873 174.5,211.5C 172.677,212.747 170.677,213.414 168.5,213.5C 168.649,214.552 168.483,215.552 168,216.5C 166.333,217.5 164.667,218.5 163,219.5C 162.335,214.844 161.835,210.177 161.5,205.5 Z"/></g>
<g><path style="opacity:1" fill="#3b17ff" d="M 374.5,202.5 C 372.473,205.384 370.806,208.55 369.5,212C 371.298,213.093 372.132,214.593 372,216.5C 366.85,217.653 364.017,215.487 363.5,210C 365.095,206.412 366.095,202.912 366.5,199.5C 369.378,197.205 372.378,197.205 375.5,199.5C 374.873,200.417 374.539,201.417 374.5,202.5 Z"/></g>
<g><path style="opacity:1" fill="#c6b7ff" d="M 161.5,199.5 C 165.235,201.725 168.568,204.558 171.5,208C 169.68,208.979 168.513,210.479 168,212.5C 167.897,207.51 165.897,203.51 162,200.5C 161.506,202.134 161.34,203.801 161.5,205.5C 160.167,203.5 160.167,201.5 161.5,199.5 Z"/></g>
<g><path style="opacity:1" fill="#5633ff" d="M 374.5,202.5 C 378.991,203.13 379.491,204.796 376,207.5C 375.25,206.874 374.416,206.374 373.5,206C 374.337,204.989 374.67,203.822 374.5,202.5 Z"/></g>
<g><path style="opacity:1" fill="#411eff" d="M 354.5,204.5 C 361.794,206.041 362.128,208.041 355.5,210.5C 353.67,210.224 352.003,209.557 350.5,208.5C 351.008,206.096 352.175,205.429 354,206.5C 354.464,205.906 354.631,205.239 354.5,204.5 Z"/></g>
<g><path style="opacity:1" fill="#3a16ff" d="M 385.5,211.5 C 383.023,215.101 380.523,218.767 378,222.5C 376.846,221.257 375.512,220.257 374,219.5C 375.205,214.423 377.538,209.756 381,205.5C 382.918,206.542 384.751,207.708 386.5,209C 385.748,209.671 385.414,210.504 385.5,211.5 Z"/></g>
<g><path style="opacity:1" fill="#4825ff" d="M 385.5,211.5 C 393.585,210.127 395.585,213.127 391.5,220.5C 389.453,219.815 387.786,218.649 386.5,217C 386.735,216.127 387.069,215.293 387.5,214.5C 386.388,213.735 385.721,212.735 385.5,211.5 Z"/></g>
<g><path style="opacity:1" fill="#411dff" d="M 142.5,212.5 C 144.655,212.372 146.655,212.872 148.5,214C 151.583,217.003 153.416,220.503 154,224.5C 152.488,225.257 151.154,226.257 150,227.5C 147.667,224.167 145.333,220.833 143,217.5C 140.171,218.674 139.171,217.674 140,214.5C 140.995,213.934 141.828,213.267 142.5,212.5 Z"/></g>
<g><path style="opacity:1" fill="#3915ff" d="M 131.5,224.5 C 131.241,220.587 133.074,218.253 137,217.5C 140.737,220.775 143.904,224.608 146.5,229C 145.183,230.659 143.517,231.826 141.5,232.5C 138.841,229.671 136.341,226.671 134,223.5C 133.329,224.252 132.496,224.586 131.5,224.5 Z"/></g>
<g><path style="opacity:1" fill="#3e1bff" d="M 404.5,221.5 C 403.129,223.17 401.629,223.836 400,223.5C 398.833,225.333 397.667,227.167 396.5,229C 397.252,229.671 397.586,230.504 397.5,231.5C 395.389,232.968 393.556,232.635 392,230.5C 391.004,226.793 391.67,223.459 394,220.5C 398.118,216.252 401.618,216.585 404.5,221.5 Z"/></g>
<g><path style="opacity:1" fill="#3712ff" d="M 404.5,221.5 C 406.39,221.297 407.89,221.963 409,223.5C 410.177,230.483 407.344,234.817 400.5,236.5C 397.161,235.889 396.161,234.222 397.5,231.5C 398.822,231.67 399.989,231.337 401,230.5C 403.451,227.665 404.617,224.665 404.5,221.5 Z"/></g>
<g><path style="opacity:1" fill="#3d19ff" d="M 131.5,224.5 C 133.261,228.104 135.261,231.604 137.5,235C 136.295,236.538 134.795,237.705 133,238.5C 129.479,234.634 126.312,230.467 123.5,226C 125.305,225.028 126.972,223.861 128.5,222.5C 129.518,223.193 130.518,223.859 131.5,224.5 Z"/></g>
<g><path style="opacity:1" fill="#ece7ff" d="M 404.5,221.5 C 404.617,224.665 403.451,227.665 401,230.5C 399.989,231.337 398.822,231.67 397.5,231.5C 397.586,230.504 397.252,229.671 396.5,229C 397.667,227.167 398.833,225.333 400,223.5C 401.629,223.836 403.129,223.17 404.5,221.5 Z"/></g>
<g><path style="opacity:1" fill="#3b17ff" d="M 124.5,243.5 C 123.208,240.599 121.208,238.266 118.5,236.5C 116.343,238.412 114.009,240.079 111.5,241.5C 110.386,240.277 110.219,238.944 111,237.5C 118.801,228.829 125.301,229.829 130.5,240.5C 129.227,243.521 127.227,244.521 124.5,243.5 Z"/></g>
<g><path style="opacity:1" fill="#181718" d="M 381.5,239.5 C 382.209,240.404 383.209,240.737 384.5,240.5C 384.5,250.833 384.5,261.167 384.5,271.5C 382.283,272.369 379.95,272.702 377.5,272.5C 378.104,281.463 374.438,287.963 366.5,292C 360.167,292.667 353.833,292.667 347.5,292C 345.545,291.047 343.878,289.713 342.5,288C 307.185,288.944 271.852,289.777 236.5,290.5C 225.487,290.393 214.487,290.06 203.5,289.5C 203.719,288.325 203.386,287.325 202.5,286.5C 198.107,291.888 192.441,293.888 185.5,292.5C 179.221,293.8 174.221,291.967 170.5,287C 169.333,286.833 168.167,286.667 167,286.5C 153.914,288.532 140.748,289.032 127.5,288C 126.167,282.667 126.167,277.333 127.5,272C 133.462,272.364 138.462,270.364 142.5,266C 146.833,264.333 151.167,262.667 155.5,261C 165.736,259.094 175.736,256.594 185.5,253.5C 190.637,254.117 195.804,254.45 201,254.5C 215.325,253.747 229.492,253.08 243.5,252.5C 245.941,252.536 247.941,253.369 249.5,255C 251.167,255.667 252.833,255.667 254.5,255C 256.183,252.986 258.183,251.32 260.5,250C 264.723,249.36 268.723,248.193 272.5,246.5C 273.167,242.833 273.833,239.167 274.5,235.5C 275.134,233.433 276.134,231.6 277.5,230C 281.5,229.333 285.5,229.333 289.5,230C 290.687,231.019 291.687,232.186 292.5,233.5C 307.634,236.398 321.967,241.565 335.5,249C 340.037,251.013 344.704,252.513 349.5,253.5C 349.5,246.833 349.5,240.167 349.5,233.5C 357.833,233.5 366.167,233.5 374.5,233.5C 374.886,237.554 377.22,239.554 381.5,239.5 Z"/></g>
<g><path style="opacity:1" fill="#006c97" d="M 278.5,232.5 C 281.898,232.18 285.232,232.513 288.5,233.5C 286.833,233.833 285.167,234.167 283.5,234.5C 281.36,234.444 279.694,233.777 278.5,232.5 Z"/></g>
<g><path style="opacity:1" fill="#3e1aff" d="M 414.5,228.5 C 416.886,229.373 418.886,230.873 420.5,233C 420.167,233.333 419.833,233.667 419.5,234C 425.124,234.79 426.957,237.957 425,243.5C 422.294,245.871 419.961,248.537 418,251.5C 416.104,250.32 414.604,248.82 413.5,247C 415.819,244.011 418.153,241.011 420.5,238C 419.667,237.167 418.833,236.333 418,235.5C 415.099,238.312 412.432,241.312 410,244.5C 408.104,243.32 406.604,241.82 405.5,240C 408.701,236.302 411.701,232.469 414.5,228.5 Z"/></g>
<g><path style="opacity:1" fill="#e8e8e8" d="M 370.5,236.5 C 373.514,240.189 377.514,242.189 382.5,242.5C 381.962,251.538 381.962,260.538 382.5,269.5C 380.712,269.785 379.045,269.452 377.5,268.5C 372.795,257.315 364.461,252.648 352.5,254.5C 352.5,250.5 352.5,246.5 352.5,242.5C 352.343,241.127 352.51,239.793 353,238.5C 355.646,241.246 358.812,242.413 362.5,242C 361.833,241.667 361.167,241.333 360.5,241C 362.78,240.767 364.78,239.934 366.5,238.5C 365.975,237.808 365.308,237.308 364.5,237C 366.473,236.505 368.473,236.338 370.5,236.5 Z"/></g>
<g><path style="opacity:1" fill="#dcdcdc" d="M 288.5,248.5 C 289.496,248.414 290.329,248.748 291,249.5C 291.495,251.473 291.662,253.473 291.5,255.5C 285.887,254.686 280.387,253.352 275,251.5C 273.97,251.164 273.47,250.497 273.5,249.5C 275.167,249.5 276.833,249.5 278.5,249.5C 278.5,245.833 278.5,242.167 278.5,238.5C 281.167,238.167 283.833,237.833 286.5,237.5C 286.5,242.833 286.5,248.167 286.5,253.5C 287.833,253.5 289.167,253.5 290.5,253.5C 290.608,251.486 289.942,249.82 288.5,248.5 Z"/></g>
<g><path style="opacity:1" fill="#e5e5e5" d="M 321.5,250.5 C 323.121,252.117 325.121,253.284 327.5,254C 328.167,255 328.833,256 329.5,257C 321.981,255.415 314.314,254.248 306.5,253.5C 306.5,256.5 306.5,259.5 306.5,262.5C 299.743,262.877 293.076,262.377 286.5,261C 288.764,260.764 290.931,260.264 293,259.5C 293.825,255.789 293.659,252.122 292.5,248.5C 291.14,247.82 289.807,247.153 288.5,246.5C 287.597,243.609 287.264,240.609 287.5,237.5C 298.582,242.37 309.916,246.703 321.5,250.5 Z"/></g>
<g><path style="opacity:1" fill="#d9d9d9" d="M 342.5,257.5 C 344,259.509 343.5,260.842 341,261.5C 337.944,260.112 334.777,259.112 331.5,258.5C 330.151,253.478 326.818,250.811 321.5,250.5C 312.61,246.251 303.61,242.085 294.5,238C 297.167,237.333 299.833,237.333 302.5,238C 309.377,240.85 316.377,243.517 323.5,246C 329.524,250.345 335.857,254.179 342.5,257.5 Z"/></g>
<g><path style="opacity:1" fill="#4926ff" d="M 434.5,237.5 C 436.479,238.812 438.145,240.479 439.5,242.5C 438.855,243.646 438.022,244.646 437,245.5C 435.315,243.983 433.815,242.316 432.5,240.5C 433.193,239.482 433.859,238.482 434.5,237.5 Z"/></g>
<g><path style="opacity:1" fill="#4925ff" d="M 124.5,243.5 C 122.941,250.621 119.441,251.955 114,247.5C 113.254,244.211 114.42,241.711 117.5,240C 121.099,239.649 121.433,240.649 118.5,243C 118.833,243.333 119.167,243.667 119.5,244C 121.107,243.981 122.774,243.815 124.5,243.5 Z"/></g>
<g><path style="opacity:1" fill="#616161" d="M 370.5,236.5 C 368.473,236.338 366.473,236.505 364.5,237C 365.308,237.308 365.975,237.808 366.5,238.5C 364.78,239.934 362.78,240.767 360.5,241C 361.167,241.333 361.833,241.667 362.5,242C 358.812,242.413 355.646,241.246 353,238.5C 352.51,239.793 352.343,241.127 352.5,242.5C 350.992,239.92 351.659,237.92 354.5,236.5C 356.642,238.207 358.975,239.041 361.5,239C 360.328,238.581 359.328,237.915 358.5,237C 358.833,236.833 359.167,236.667 359.5,236.5C 363.118,235.691 366.784,235.691 370.5,236.5 Z"/></g>
<g><path style="opacity:1" fill="#401dff" d="M 429.5,242.5 C 431.886,243.373 433.886,244.873 435.5,247C 431.985,250.682 428.318,254.182 424.5,257.5C 422.625,256.46 421.292,254.96 420.5,253C 423.322,249.345 426.322,245.845 429.5,242.5 Z"/></g>
<g><path style="opacity:1" fill="#401cff" d="M 103.5,254.5 C 104.8,253.399 105.3,252.066 105,250.5C 103.36,251.125 101.527,251.125 99.5,250.5C 99.7512,248.83 100.418,247.33 101.5,246C 113.145,245.241 114.645,248.408 106,255.5C 105.329,254.748 104.496,254.414 103.5,254.5 Z"/></g>
<g><path style="opacity:1" fill="#3929a3" d="M 275.5,237.5 C 276.787,238.871 277.453,240.705 277.5,243C 277.167,244.833 276.833,246.667 276.5,248.5C 275.511,244.893 275.177,241.226 275.5,237.5 Z"/></g>
<g><path style="opacity:1" fill="#e9e3ff" d="M 103.5,254.5 C 101.659,253.598 100.326,252.264 99.5,250.5C 101.527,251.125 103.36,251.125 105,250.5C 105.3,252.066 104.8,253.399 103.5,254.5 Z"/></g>
<g><path style="opacity:1" fill="#3813ff" d="M 99.5,250.5 C 100.326,252.264 101.659,253.598 103.5,254.5C 105.294,256.797 107.294,258.963 109.5,261C 105.655,263.119 101.988,262.786 98.5,260C 96.5218,257.503 96.0218,254.669 97,251.5C 97.6708,250.748 98.5041,250.414 99.5,250.5 Z"/></g>
<g><path style="opacity:1" fill="#411dff" d="M 113.5,251.5 C 115.273,252.314 115.773,253.648 115,255.5C 113.649,257.019 112.149,258.352 110.5,259.5C 109.5,259.167 108.833,258.5 108.5,257.5C 110.19,255.481 111.856,253.481 113.5,251.5 Z"/></g>
<g><path style="opacity:1" fill="#e0e0e0" d="M 270.5,251.5 C 277.459,253.598 284.459,255.765 291.5,258C 280.152,258.628 268.819,258.461 257.5,257.5C 260.328,252.589 264.662,250.589 270.5,251.5 Z"/></g>
<g><path style="opacity:1" fill="#4320ff" d="M 440.5,256.5 C 437.681,258.419 435.014,260.585 432.5,263C 436.356,263.533 439.356,265.366 441.5,268.5C 439.235,269.647 436.902,269.814 434.5,269C 427.003,264.043 426.67,258.71 433.5,253C 436.706,252.11 439.706,252.443 442.5,254C 441.619,254.708 440.953,255.542 440.5,256.5 Z"/></g>
<g><path style="opacity:1" fill="#411eff" d="M 86.5,264.5 C 84.1644,266.004 82.331,268.004 81,270.5C 79.7638,269.601 78.9304,268.434 78.5,267C 81.2495,262.412 84.5829,258.245 88.5,254.5C 89.8333,255.167 90.8333,256.167 91.5,257.5C 89.3951,259.592 87.7284,261.925 86.5,264.5 Z"/></g>
<g><path style="opacity:1" fill="#9b9b9b" d="M 226.5,256.5 C 227.964,255.84 229.631,255.507 231.5,255.5C 233.712,255.412 235.712,255.912 237.5,257C 233.83,257.279 230.163,257.112 226.5,256.5 Z"/></g>
<g><path style="opacity:1" fill="#421fff" d="M 440.5,256.5 C 441.583,256.461 442.583,256.127 443.5,255.5C 446.759,258.812 447.259,262.479 445,266.5C 443.315,264.983 441.815,263.316 440.5,261.5C 441.535,259.872 441.535,258.205 440.5,256.5 Z"/></g>
<g><path style="opacity:1" fill="#4330bb" d="M 342.5,257.5 C 342.047,256.542 341.381,255.708 340.5,255C 342.951,254.694 345.284,255.194 347.5,256.5C 345.955,257.452 344.288,257.785 342.5,257.5 Z"/></g>
<g><path style="opacity:1" fill="#484848" d="M 183.5,256.5 C 197.651,257.147 204.151,264.48 203,278.5C 197.64,290.717 188.807,294.217 176.5,289C 165.458,277.887 166.125,267.553 178.5,258C 180.382,257.802 182.048,257.302 183.5,256.5 Z"/></g>
<g><path style="opacity:1" fill="#2c1f7d" d="M 201.5,256.5 C 208.508,256.334 215.508,256.5 222.5,257C 215.327,257.885 208.161,258.718 201,259.5C 199.941,259.37 199.108,258.87 198.5,258C 199.737,257.768 200.737,257.268 201.5,256.5 Z"/></g>
<g><path style="opacity:1" fill="#494949" d="M 354.5,256.5 C 371.026,257.853 377.193,266.52 373,282.5C 364.997,292.835 355.663,294.168 345,286.5C 336.872,272.722 340.038,262.722 354.5,256.5 Z"/></g>
<g><path style="opacity:1" fill="#ebebeb" d="M 240.5,261.5 C 242.196,261.315 243.529,260.481 244.5,259C 246.473,258.505 248.473,258.338 250.5,258.5C 251.167,258.5 251.5,258.833 251.5,259.5C 247.933,261.143 247.599,263.31 250.5,266C 250.055,267.447 249.388,268.78 248.5,270C 250.016,272.024 251.349,274.191 252.5,276.5C 251.5,276.833 250.5,277.167 249.5,277.5C 247.076,276.262 244.742,274.762 242.5,273C 239.518,272.502 236.518,272.335 233.5,272.5C 233.5,273.833 233.5,275.167 233.5,276.5C 224.524,275.32 215.524,274.32 206.5,273.5C 205.911,268.898 204.244,264.731 201.5,261C 209.967,259.752 218.467,258.585 227,257.5C 229.879,257.049 231.712,258.215 232.5,261C 235.146,261.497 237.813,261.664 240.5,261.5 Z"/></g>
<g><path style="opacity:1" fill="#7a7a7a" d="M 250.5,258.5 C 248.473,258.338 246.473,258.505 244.5,259C 243.529,260.481 242.196,261.315 240.5,261.5C 230.268,259.782 230.268,258.616 240.5,258C 242.301,257.683 242.634,257.016 241.5,256C 242.167,255.833 242.833,255.667 243.5,255.5C 245.895,256.655 248.229,257.655 250.5,258.5 Z"/></g>
<g><path style="opacity:1" fill="#a9a9a9" d="M 381.5,239.5 C 382.833,239.5 384.167,239.5 385.5,239.5C 385.828,250.346 385.494,261.013 384.5,271.5C 384.5,261.167 384.5,250.833 384.5,240.5C 383.209,240.737 382.209,240.404 381.5,239.5 Z"/></g>
<g><path style="opacity:1" fill="#c7c7c7" d="M 254.5,258.5 C 272.563,259.744 290.23,263.077 307.5,268.5C 308.482,271.962 308.815,275.629 308.5,279.5C 290.127,280.993 271.794,280.66 253.5,278.5C 253.623,275.412 252.623,272.745 250.5,270.5C 253.1,267.706 253.1,264.873 250.5,262C 251.381,261.292 252.047,260.458 252.5,259.5C 252.842,258.662 253.508,258.328 254.5,258.5 Z"/></g>
<g><path style="opacity:1" fill="#2a2a2b" d="M 288.5,246.5 C 289.807,247.153 291.14,247.82 292.5,248.5C 293.659,252.122 293.825,255.789 293,259.5C 290.931,260.264 288.764,260.764 286.5,261C 293.076,262.377 299.743,262.877 306.5,262.5C 306.5,259.5 306.5,256.5 306.5,253.5C 314.314,254.248 321.981,255.415 329.5,257C 328.833,256 328.167,255 327.5,254C 325.121,253.284 323.121,252.117 321.5,250.5C 326.818,250.811 330.151,253.478 331.5,258.5C 331.062,258.435 330.728,258.601 330.5,259C 331.167,259.333 331.833,259.667 332.5,260C 331.167,260.333 329.833,260.667 328.5,261C 331.064,262.736 330.731,263.902 327.5,264.5C 326.735,263.34 325.735,262.34 324.5,261.5C 322.929,262.309 321.262,262.643 319.5,262.5C 316.375,263.479 313.042,263.813 309.5,263.5C 303.42,263.532 303.087,264.698 308.5,267C 307.944,267.383 307.611,267.883 307.5,268.5C 290.23,263.077 272.563,259.744 254.5,258.5C 255.209,257.596 256.209,257.263 257.5,257.5C 268.819,258.461 280.152,258.628 291.5,258C 284.459,255.765 277.459,253.598 270.5,251.5C 271.778,251.218 272.778,250.551 273.5,249.5C 273.47,250.497 273.97,251.164 275,251.5C 280.387,253.352 285.887,254.686 291.5,255.5C 291.662,253.473 291.495,251.473 291,249.5C 290.329,248.748 289.496,248.414 288.5,248.5C 288.5,247.833 288.5,247.167 288.5,246.5 Z"/></g>
<g><path style="opacity:1" fill="#bdbdbd" d="M 319.5,262.5 C 315.5,262.5 311.5,262.5 307.5,262.5C 307.5,259.833 307.5,257.167 307.5,254.5C 313.606,254.785 319.272,256.452 324.5,259.5C 322.64,260.325 320.974,261.325 319.5,262.5 Z"/></g>
<g><path style="opacity:1" fill="#4e38d9" d="M 327.5,264.5 C 327.5,265.5 327.5,266.5 327.5,267.5C 323.5,267.5 319.5,267.5 315.5,267.5C 314.048,266.698 312.382,266.198 310.5,266C 309.748,265.329 309.414,264.496 309.5,263.5C 313.042,263.813 316.375,263.479 319.5,262.5C 321.262,262.643 322.929,262.309 324.5,261.5C 325.735,262.34 326.735,263.34 327.5,264.5 Z"/></g>
<g><path style="opacity:1" fill="#3914ff" d="M 86.5,264.5 C 87.4822,263.859 88.4822,263.193 89.5,262.5C 93.3094,265.142 96.9761,267.975 100.5,271C 99.2567,272.154 98.2567,273.488 97.5,275C 96.5,275.667 95.5,275.667 94.5,275C 91.3119,272.568 88.3119,269.901 85.5,267C 86.2524,266.329 86.5858,265.496 86.5,264.5 Z"/></g>
<g><path style="opacity:1" fill="#523be1" d="M 168.5,260.5 C 170.927,261.279 170.927,262.446 168.5,264C 160.998,265.273 154.331,268.273 148.5,273C 135.893,274.885 134.893,273.219 145.5,268C 153.06,264.802 160.727,262.302 168.5,260.5 Z"/></g>
<g><path style="opacity:1" fill="#1b1b1b" d="M 349.5,268.5 C 346.182,276.87 348.848,281.87 357.5,283.5C 365.713,282.071 368.547,277.404 366,269.5C 361.996,264.251 357.162,263.251 351.5,266.5C 350.668,265.671 351.001,264.838 352.5,264C 357.354,262.27 361.854,263.103 366,266.5C 371.384,276.574 368.551,282.574 357.5,284.5C 350.454,284.622 346.787,281.122 346.5,274C 346.542,272.033 347.042,270.199 348,268.5C 348.69,267.262 349.19,267.262 349.5,268.5 Z"/></g>
<g><path style="opacity:1" fill="#191919" d="M 181.5,263.5 C 192.989,262.155 197.823,267.155 196,278.5C 194.878,280.624 193.378,282.457 191.5,284C 179.556,286.389 174.39,281.556 176,269.5C 177.36,266.977 179.193,264.977 181.5,263.5 Z"/></g>
<g><path style="opacity:1" fill="#3c18ff" d="M 450.5,266.5 C 451.552,266.351 452.552,266.517 453.5,267C 455.694,269.695 457.694,272.528 459.5,275.5C 457.997,281.174 454.497,285.174 449,287.5C 447.833,285.833 446.667,284.167 445.5,282.5C 448.5,280 451.5,277.5 454.5,275C 452.954,272.743 451.288,270.576 449.5,268.5C 449.863,267.817 450.196,267.15 450.5,266.5 Z"/></g>
<g><path style="opacity:1" fill="#474747" d="M 315.5,267.5 C 319.946,268.893 324.612,269.893 329.5,270.5C 330.246,271.736 330.579,273.07 330.5,274.5C 323.198,274.352 316.531,272.185 310.5,268C 312.134,267.506 313.801,267.34 315.5,267.5 Z"/></g>
<g><path style="opacity:1" fill="#777777" d="M 349.5,268.5 C 350.5,268.167 351.167,267.5 351.5,266.5C 357.162,263.251 361.996,264.251 366,269.5C 368.547,277.404 365.713,282.071 357.5,283.5C 348.848,281.87 346.182,276.87 349.5,268.5 Z"/></g>
<g><path style="opacity:1" fill="#1b1543" d="M 363.5,269.5 C 364.15,271.435 364.483,273.435 364.5,275.5C 361.343,275.921 359.01,274.755 357.5,272C 359.095,272.617 360.428,272.284 361.5,271C 359.899,270.727 358.399,270.227 357,269.5C 355.486,273.017 353.986,276.351 352.5,279.5C 348.387,275.159 348.72,270.992 353.5,267C 356.167,266.333 358.833,266.333 361.5,267C 362.381,267.708 363.047,268.542 363.5,269.5 Z"/></g>
<g><path style="opacity:1" fill="#b4b4b4" d="M 162.5,269.5 C 163.5,269.5 164.5,269.5 165.5,269.5C 165.5,271.5 165.5,273.5 165.5,275.5C 162.769,274.973 160.102,274.14 157.5,273C 159.233,271.811 160.9,270.644 162.5,269.5 Z"/></g>
<g><path style="opacity:1" fill="#3b17ff" d="M 442.5,270.5 C 447.55,269.757 450.384,271.757 451,276.5C 450.667,276.833 450.333,277.167 450,277.5C 448.637,275.216 447.137,275.049 445.5,277C 447.967,279.562 447.3,280.562 443.5,280C 440.122,277.036 439.789,273.869 442.5,270.5 Z"/></g>
<g><path style="opacity:1" fill="#bdbdbd" d="M 328.5,278.5 C 322.974,278.179 317.64,278.512 312.5,279.5C 311.5,279.5 310.5,279.5 309.5,279.5C 309.205,276.266 309.871,273.266 311.5,270.5C 317.576,274.47 324.243,276.303 331.5,276C 330.627,277.045 329.627,277.878 328.5,278.5 Z"/></g>
<g><path style="opacity:1" fill="#c1c1c1" d="M 235.5,274.5 C 243.349,274.017 247.349,277.684 247.5,285.5C 243.78,285.436 240.114,284.936 236.5,284C 235.549,280.943 235.216,277.777 235.5,274.5 Z"/></g>
<g><path style="opacity:1" fill="#110c22" d="M 363.5,269.5 C 364.117,269.611 364.617,269.944 365,270.5C 366.378,274.942 365.212,278.442 361.5,281C 360.207,281.49 358.873,281.657 357.5,281.5C 358.705,278.003 358.205,275.003 356,272.5C 356.802,275.511 356.635,278.511 355.5,281.5C 353.973,281.573 352.973,280.906 352.5,279.5C 353.986,276.351 355.486,273.017 357,269.5C 358.399,270.227 359.899,270.727 361.5,271C 360.428,272.284 359.095,272.617 357.5,272C 359.01,274.755 361.343,275.921 364.5,275.5C 364.483,273.435 364.15,271.435 363.5,269.5 Z"/></g>
<g><path style="opacity:1" fill="#e9e9e9" d="M 129.5,274.5 C 139.506,274.334 149.506,274.5 159.5,275C 160.456,278.394 160.789,281.894 160.5,285.5C 150.167,285.5 139.833,285.5 129.5,285.5C 129.5,281.833 129.5,278.167 129.5,274.5 Z"/></g>
<g><path style="opacity:1" fill="#b9b9b9" d="M 218.5,276.5 C 223.989,275.645 227.323,277.978 228.5,283.5C 225.465,284.665 222.465,284.498 219.5,283C 218.577,280.959 218.244,278.792 218.5,276.5 Z"/></g>
<g><path style="opacity:1" fill="#362798" d="M 357.5,281.5 C 356.833,281.5 356.167,281.5 355.5,281.5C 356.635,278.511 356.802,275.511 356,272.5C 358.205,275.003 358.705,278.003 357.5,281.5 Z"/></g>
<g><path style="opacity:1" fill="#797979" d="M 177.5,276.5 C 176.585,266.286 181.252,262.786 191.5,266C 195.13,269.05 196.297,272.883 195,277.5C 191.608,283.467 186.774,284.967 180.5,282C 178.393,280.736 177.393,278.903 177.5,276.5 Z"/></g>
<g><path style="opacity:1" fill="#130f21" d="M 188.5,281.5 C 188.721,280.265 189.388,279.265 190.5,278.5C 189.265,275.956 188.099,275.956 187,278.5C 187.178,276.56 186.178,274.893 184,273.5C 184.019,275.107 184.185,276.774 184.5,278.5C 183.448,278.351 182.448,278.517 181.5,279C 182.756,279.417 183.423,280.25 183.5,281.5C 180.885,280.55 178.885,278.883 177.5,276.5C 177.701,267.808 182.035,264.641 190.5,267C 193.318,270.338 194.151,274.171 193,278.5C 191.871,280.141 190.371,281.141 188.5,281.5 Z"/></g>
<g><path style="opacity:1" fill="#241b68" d="M 188.5,281.5 C 186.833,281.5 185.167,281.5 183.5,281.5C 183.423,280.25 182.756,279.417 181.5,279C 182.448,278.517 183.448,278.351 184.5,278.5C 184.185,276.774 184.019,275.107 184,273.5C 186.178,274.893 187.178,276.56 187,278.5C 188.099,275.956 189.265,275.956 190.5,278.5C 189.388,279.265 188.721,280.265 188.5,281.5 Z"/></g>
<g><path style="opacity:1" fill="#422fb6" d="M 189.5,273.5 C 190.675,273.281 191.675,273.614 192.5,274.5C 190.948,275.798 189.948,275.465 189.5,273.5 Z"/></g>
<g><path style="opacity:1" fill="#1c164b" d="M 182.5,267.5 C 186.122,266.924 189.122,267.924 191.5,270.5C 190.234,271.724 189.067,273.057 188,274.5C 186.736,272.393 184.903,271.393 182.5,271.5C 182.5,270.167 182.5,268.833 182.5,267.5 Z"/></g>
<g><path style="opacity:1" fill="#343434" d="M 251.5,259.5 C 251.833,259.5 252.167,259.5 252.5,259.5C 252.047,260.458 251.381,261.292 250.5,262C 253.1,264.873 253.1,267.706 250.5,270.5C 252.623,272.745 253.623,275.412 253.5,278.5C 271.794,280.66 290.127,280.993 308.5,279.5C 329.407,280.329 330.74,280.329 312.5,279.5C 317.64,278.512 322.974,278.179 328.5,278.5C 329.857,280.499 329.19,281.665 326.5,282C 300.843,283.051 275.177,283.551 249.5,283.5C 249.649,282.448 249.483,281.448 249,280.5C 248.802,282.382 248.302,284.048 247.5,285.5C 247.349,277.684 243.349,274.017 235.5,274.5C 235.565,274.062 235.399,273.728 235,273.5C 234.768,274.737 234.268,275.737 233.5,276.5C 233.5,275.167 233.5,273.833 233.5,272.5C 236.518,272.335 239.518,272.502 242.5,273C 244.742,274.762 247.076,276.262 249.5,277.5C 250.5,277.167 251.5,276.833 252.5,276.5C 251.349,274.191 250.016,272.024 248.5,270C 249.388,268.78 250.055,267.447 250.5,266C 247.599,263.31 247.933,261.143 251.5,259.5 Z"/></g>
<g><path style="opacity:1" fill="#9c9c9c" d="M 161.5,280.5 C 163.5,280.5 165.5,280.5 167.5,280.5C 167.5,281.5 167.5,282.5 167.5,283.5C 165.5,283.5 163.5,283.5 161.5,283.5C 161.5,282.5 161.5,281.5 161.5,280.5 Z"/></g>
</svg>
